# xmcd
#
# Track frame offsets:
#	150
#	20196
#	39026
#	59350
#	79035
#	101220
#
# Disc length: 1646 seconds
#
# Revision: 1
# Processed by: cddbd v1.5.2PL0 Copyright (c) Steve Scherf et al.
# Submitted via: audiograbber 1.83.01
#
DISCID=45066c06
DTITLE=Sweet Talks - The Kusum Beat
DYEAR=1974
DGENRE=Afro
TTITLE0=Akampanye
TTITLE1=Mampam Sukuruwe
TTITLE2=Eyi Su Ngaangaa
TTITLE3=Oburumakoma
TTITLE4=Sasa Abonsam
TTITLE5=Kyekye Pe Aware
EXTD=
EXTT0=
EXTT1=
EXTT2=
EXTT3=
EXTT4=
EXTT5=
PLAYORDER=
